<svg xmlns="http://www.w3.org/2000/svg" width="64" height="64" viewBox="0 0 64 64">
  <g fill="none" fill-rule="evenodd">
    <rect width="64" height="64"/>
    <path fill="#000000" fill-rule="nonzero" d="M22,16 L22,14 C22,11.790861 23.790861,10 26,10 L38,10 C40.209139,10 42,11.790861 42,14 L42,16 L53,16 C55.7614237,16 58,18.2385763 58,21 L58,49 C58,51.7614237 55.7614237,54 53,54 L11,54 C8.23857625,54 6,51.7614237 6,49 L6,21 C6,18.2385763 8.23857625,16 11,16 L22,16 Z M23.5,16 L40.5,16 L40.5,14 C40.5,12.6192881 39.3807119,11.5 38,11.5 L26,11.5 C24.6192881,11.5 23.5,12.6192881 23.5,14 L23.5,16 Z M11,17.5 C9.06700338,17.5 7.5,19.0670034 7.5,21 L7.5,49 C7.5,50.9329966 9.06700338,52.5 11,52.5 L53,52.5 C54.9329966,52.5 56.5,50.9329966 56.5,49 L56.5,21 C56.5,19.0670034 54.9329966,17.5 53,17.5 L11,17.5 Z"/>
    <path fill="#000000" d="M57,32 L56.5,32 L56.5,33 C56.5,34.9329966 54.9329966,36.5 53,36.5 L11,36.5 C9.06700338,36.5 7.5,34.9329966 7.5,33 L7.5,32 L7,32 L7,36.0004875 C7.91222879,37.2146569 9.36440104,38 11,38 L53,38 C54.635599,38 56.0877712,37.2146569 57,36.0004875 L57,32 Z"/>
    <circle cx="32" cy="32" r="2" fill="#000000"/>
  </g>
</svg>
