<svg xmlns="http://www.w3.org/2000/svg" width="64" height="64" viewBox="0 0 64 64"><g fill="none" fill-rule="evenodd"><path d="M0 0h64v64H0z"/><g transform="translate(5 2)"><g fill="#000" fill-rule="nonzero"><path d="M44.53 13.53l6-6c.293-.293.293-.767 0-1.06-.293-.293-.767-.293-1.06 0l-6 6c-.293.293-.293.767 0 1.06.293.293.767.293 1.06 0zM51.53 32.47l-6-6c-.293-.293-.767-.293-1.06 0-.293.293-.293.767 0 1.06l6 6c.293.293.767.293 1.06 0 .293-.293.293-.767 0-1.06zM30.53 11.47l-6-6c-.293-.293-.767-.293-1.06 0-.293.293-.293.767 0 1.06l6 6c.293.293.767.293 1.06 0 .293-.293.293-.767 0-1.06z"/></g><g fill="#000" fill-rule="nonzero"><path d="M46.863 20.25h8.486c.413 0 .75-.336.75-.75s-.337-.75-.75-.75h-8.487c-.414 0-.75.336-.75.75s.336.75.75.75zM36.75 1.65v8.487c0 .414.336.75.75.75s.75-.336.75-.75V1.65c0-.413-.336-.75-.75-.75s-.75.337-.75.75z"/></g><rect width="50.5" height="4.5" x="-4.25" y="33.75" stroke="#000" stroke-width="1.5" transform="rotate(-45 21 36)" rx="2.25"/></g></g></svg>