<svg xmlns="http://www.w3.org/2000/svg" width="64" height="64" viewBox="0 0 64 64">
  <g fill="none" fill-rule="evenodd">
    <rect width="64" height="64"/>
    <g fill="#000000" transform="translate(8 4)">
      <path d="M25.084,39.866 L25.084,37.02 C26.358,36.838 27.372,36.292 28.126,35.408 C28.88,34.498 29.244,33.51 29.244,32.392 C29.244,30.494 28.36,28.986 27.216,28.18 C26.644,27.764 26.02,27.374 25.318,26.984 C23.368,25.892 21.418,25.164 21.418,23.292 C21.418,21.914 22.718,20.822 24.2,20.822 C25.734,20.822 26.904,22.044 26.904,23.474 L29.01,23.474 L29.01,23.344 C29.01,22.33 28.646,21.394 27.944,20.484 C27.242,19.574 26.306,19.028 25.084,18.82 L25.084,16 L23.03,16 L23.03,18.872 C21.938,19.106 21.028,19.652 20.3,20.51 C19.598,21.342 19.234,22.304 19.234,23.422 C19.208,26.646 22.094,27.842 24.278,28.908 C25.812,29.662 27.034,30.858 27.034,32.6 C27.034,33.952 25.864,35.07 24.174,35.07 C22.328,35.07 21.158,33.874 21.158,32.288 L21.158,31.716 L19,31.716 L19,32.236 C19,34.602 20.508,36.578 23.03,36.994 L23.03,39.866 L25.084,39.866 Z"/>
      <g fill-rule="nonzero">
        <path d="M24,4.25 C10.8832372,4.25 0.25,14.8832372 0.25,28 C0.25,37.933734 6.40539007,46.7122637 15.5329419,50.1960918 C15.9199253,50.3437967 16.3533757,50.1498231 16.5010806,49.7628397 C16.6487854,49.3758563 16.4548118,48.9424058 16.0678284,48.794701 C7.51680164,45.5309224 1.75,37.3065794 1.75,28 C1.75,15.7116643 11.7116643,5.75 24,5.75 C24.4142136,5.75 24.75,5.41421356 24.75,5 C24.75,4.58578644 24.4142136,4.25 24,4.25 Z"/>
        <path d="M21.4005664,8.5500586 C21.1520706,8.88145372 21.2192738,9.35154817 21.550669,9.60004395 C21.8820641,9.84853972 22.3521585,9.78133652 22.6006543,9.4499414 L25.6000439,5.4499414 C25.7999854,5.18329861 25.7999854,4.81670139 25.6000439,4.5500586 L22.6006543,0.5500586 C22.3521585,0.21866348 21.8820641,0.151460281 21.550669,0.399956054 C21.2192738,0.648451828 21.1520706,1.11854628 21.4005664,1.4499414 L24.0625687,5 L21.4005664,8.5500586 Z"/>
      </g>
      <g fill-rule="nonzero" transform="rotate(180 24 28)">
        <path d="M24,4.25 C10.8832372,4.25 0.25,14.8832372 0.25,28 C0.25,37.933734 6.40539007,46.7122637 15.5329419,50.1960918 C15.9199253,50.3437967 16.3533757,50.1498231 16.5010806,49.7628397 C16.6487854,49.3758563 16.4548118,48.9424058 16.0678284,48.794701 C7.51680164,45.5309224 1.75,37.3065794 1.75,28 C1.75,15.7116643 11.7116643,5.75 24,5.75 C24.4142136,5.75 24.75,5.41421356 24.75,5 C24.75,4.58578644 24.4142136,4.25 24,4.25 Z"/>
        <path d="M21.4005664,8.5500586 C21.1520706,8.88145372 21.2192738,9.35154817 21.550669,9.60004395 C21.8820641,9.84853972 22.3521585,9.78133652 22.6006543,9.4499414 L25.6000439,5.4499414 C25.7999854,5.18329861 25.7999854,4.81670139 25.6000439,4.5500586 L22.6006543,0.5500586 C22.3521585,0.21866348 21.8820641,0.151460281 21.550669,0.399956054 C21.2192738,0.648451828 21.1520706,1.11854628 21.4005664,1.4499414 L24.0625687,5 L21.4005664,8.5500586 Z"/>
      </g>
    </g>
  </g>
</svg>
