<svg xmlns="http://www.w3.org/2000/svg" width="64" height="64" viewBox="0 0 64 64">
  <g fill="none" fill-rule="evenodd">
    <rect width="64" height="64"/>
    <path fill="#000000" fill-rule="nonzero" d="M22,4 L42,4 C44.7614237,4 47,6.23857625 47,9 L47,55 C47,57.7614237 44.7614237,60 42,60 L22,60 C19.2385763,60 17,57.7614237 17,55 L17,9 C17,6.23857625 19.2385763,4 22,4 Z M22,5.5 C20.0670034,5.5 18.5,7.06700338 18.5,9 L18.5,55 C18.5,56.9329966 20.0670034,58.5 22,58.5 L42,58.5 C43.9329966,58.5 45.5,56.9329966 45.5,55 L45.5,9 C45.5,7.06700338 43.9329966,5.5 42,5.5 L22,5.5 Z"/>
    <polygon fill="#000000" fill-rule="nonzero" points="18 50 46 50 46 51.5 18 51.5"/>
    <circle cx="32" cy="55" r="2" fill="#000000"/>
  </g>
</svg>
